<?xml version="1.0" encoding="utf-8"?>
<!-- Generator: Adobe Illustrator 19.0.0, SVG Export Plug-In . SVG Version: 6.00 Build 0)  -->
<svg version="1.1" id="Layer_1" xmlns="http://www.w3.org/2000/svg" xmlns:xlink="http://www.w3.org/1999/xlink" x="0px" y="0px"
	 viewBox="-801 429 315.4 343" style="enable-background:new -801 429 315.4 343;" xml:space="preserve">
<style type="text/css">
	.st0{display:none;fill:#A0001E;}
	.st1{display:none;}
	.st2{display:inline;fill:url(#SVGID_1_);}
	.st3{display:inline;fill:#A0001E;}
	.st4{display:inline;fill:url(#SVGID_2_);}
</style>
<path class="st0" d="M-1013.7,959.9l57.5,99.7h46.7l-80.8-140.2h-46.7l-80.8,140.2h46.7L-1013.7,959.9z"/>
<path class="st0" d="M-1013.7,959.9l57.5,99.7h46.7l-80.8-140.2h-46.7l-80.8,140.2h46.7L-1013.7,959.9z"/>
<path d="M-521.6,640.3l-122.2,87l-121.4-86.4V465.1h243.5L-521.6,640.3L-521.6,640.3z M-494.9,429.4h-306v230.1l35.8,25.5l90.5,64.4
	l30.9,22l30.9-22l91.3-65l35.8-25.5V429.4H-494.9L-494.9,429.4z"/>
<g id="_x32_" class="st1">
	
		<linearGradient id="SVGID_1_" gradientUnits="userSpaceOnUse" x1="-1051.8102" y1="264.5733" x2="-984.3102" y2="212.5734" gradientTransform="matrix(1 0 0 -1 0 1202)">
		<stop  offset="0" style="stop-color:#080000"/>
		<stop  offset="1" style="stop-color:#A0001E"/>
	</linearGradient>
	<polygon class="st2" points="-932,1059.7 -978,1059.7 -1036.3,919.4 -990.3,919.4 	"/>
	<polygon class="st3" points="-1036.3,1059.7 -1082.3,1059.7 -1037,919.4 -991,919.4 	"/>
</g>
<g id="_x33_" class="st1">
	
		<linearGradient id="SVGID_2_" gradientUnits="userSpaceOnUse" x1="-1030.481" y1="219.2902" x2="-984.981" y2="210.2902" gradientTransform="matrix(1 0 0 -1 0 1202)">
		<stop  offset="0" style="stop-color:#080000"/>
		<stop  offset="1" style="stop-color:#A0001E"/>
	</linearGradient>
	<polygon class="st4" points="-955.5,1059.7 -1001.5,1059.7 -1036.3,919.4 -990.3,919.4 	"/>
	<polygon class="st3" points="-1013.7,1059.7 -1059.6,1059.7 -1037,919.4 -991,919.4 	"/>
</g>
<g>
	<polygon id="_x34__4_" points="-693.9,644.4 -721.8,644.4 -675.5,569.2 -647.6,569.2 	"/>
	<polygon id="_x34__5_" points="-639.3,644.4 -667.3,644.4 -621,569.2 -593,569.2 	"/>
	<polygon id="_x34__7_" points="-637,587.4 -655.3,587.4 -643.6,569.2 -625.3,569.2 	"/>
	<polygon id="_x34__8_" points="-583.3,587.4 -601.6,587.4 -589.9,569.2 -571.6,569.2 	"/>
	<polygon id="_x34__6_" points="-587.2,644.4 -615.2,644.4 -568.8,569.2 -540.9,569.2 	"/>
</g>
<g>
	<polygon id="_x34_" points="-715.3,609.4 -747,609.4 -674.5,490.8 -642.8,490.8 	"/>
	<polygon id="_x34__1_" points="-621.8,555 -651.9,555 -611.6,490.8 -581.4,490.8 	"/>
	<polygon id="_x34__2_" points="-628.7,511.3 -650.3,511.3 -636.9,490.8 -615.4,490.8 	"/>
	<polygon id="_x34__3_" points="-656.2,555 -677.7,555 -664.4,534.6 -642.8,534.6 	"/>
</g>
</svg>
